<?xml version="1.0" standalone="no"?>
<!DOCTYPE svg PUBLIC "-//W3C//DTD SVG 20010904//EN"
 "http://www.w3.org/TR/2001/REC-SVG-20010904/DTD/svg10.dtd">
<svg version="1.0" xmlns="http://www.w3.org/2000/svg"
 width="1280.000000pt" height="1095.000000pt" viewBox="0 0 1280.000000 1095.000000"
 preserveAspectRatio="xMidYMid meet">
<g transform="translate(0.000000,1095.000000) scale(0.100000,-0.100000)"
fill="#000000" stroke="none">
<path d="M9735 10920 c-5 -17 16 -42 107 -133 100 -98 134 -141 272 -347 167
-248 381 -539 460 -627 39 -43 352 -303 543 -452 46 -35 83 -36 83 -1 0 28
-84 313 -126 427 -57 156 -167 369 -238 464 -204 270 -558 506 -973 649 -63
22 -117 40 -118 40 -2 0 -7 -9 -10 -20z"/>
<path d="M2835 10821 c-410 -145 -762 -389 -982 -678 -60 -80 -162 -291 -218
-453 -43 -127 -125 -423 -125 -455 0 -8 11 -17 25 -21 21 -5 61 26 291 222
193 164 284 250 331 308 96 122 284 395 434 631 117 184 148 224 247 325 83
85 110 119 104 129 -13 23 -22 22 -107 -8z"/>
<path d="M11026 10301 c-16 -18 -13 -26 75 -172 146 -242 148 -249 309 -922
50 -212 105 -398 148 -504 12 -29 17 -53 12 -53 -5 0 -35 39 -67 87 -79 120
-190 251 -279 326 -41 35 -145 114 -232 174 -312 219 -478 364 -588 512 -59
80 -68 88 -91 73 -27 -17 40 -267 108 -405 50 -101 78 -142 221 -319 133 -165
213 -241 608 -579 283 -242 371 -328 475 -462 33 -42 65 -77 71 -77 27 0 34
26 24 81 -16 81 -16 322 0 624 18 366 0 566 -72 805 -30 100 -132 300 -200
392 -109 148 -291 311 -464 413 -40 24 -42 24 -58 6z"/>
<path d="M1550 10136 c-387 -264 -605 -630 -650 -1094 -14 -145 -12 -261 10
-542 21 -263 25 -484 11 -580 -8 -55 -1 -80 23 -80 6 0 55 58 109 130 100 132
176 206 547 535 229 202 366 343 479 490 122 158 181 250 222 345 58 137 110
367 86 382 -24 15 -35 7 -77 -58 -91 -141 -275 -311 -580 -537 -257 -191 -396
-333 -515 -530 -25 -42 -51 -75 -55 -72 -5 3 6 48 25 100 44 120 101 352 165
670 84 416 114 501 264 754 66 111 67 114 49 133 -18 18 -21 17 -113 -46z"/>
<path d="M11941 9367 c-8 -11 -5 -29 13 -73 50 -122 91 -354 80 -449 -4 -39
-30 -446 -53 -831 -17 -289 -17 -310 0 -495 29 -316 33 -396 20 -383 -7 6 -25
60 -41 120 -39 149 -72 240 -136 369 -85 174 -150 252 -452 539 -231 220 -342
334 -424 434 -11 14 -24 19 -38 15 -20 -5 -21 -10 -15 -62 19 -162 96 -395
193 -585 45 -87 200 -317 480 -709 223 -313 298 -444 410 -723 42 -103 51
-119 71 -119 21 0 26 14 71 190 65 259 108 409 179 626 109 337 140 496 148
770 6 196 -3 305 -38 476 -57 280 -200 588 -399 855 -37 50 -50 57 -69 35z"/>
<path d="M684 9167 c-352 -499 -470 -1057 -348 -1656 31 -155 51 -223 153
-521 44 -129 111 -343 149 -475 64 -224 70 -240 91 -240 21 0 29 14 66 110
115 303 169 400 508 908 317 476 379 584 451 798 38 113 72 263 78 343 2 39
-1 51 -16 60 -15 9 -22 6 -40 -18 -56 -78 -184 -214 -427 -456 -285 -284 -339
-351 -420 -524 -46 -99 -121 -321 -139 -411 -6 -33 -16 -76 -22 -95 -18 -56
-27 -9 -18 90 4 47 13 182 20 300 12 205 12 230 -14 545 -15 182 -36 429 -47
550 -31 328 -19 488 50 687 19 56 19 58 1 68 -10 5 -20 10 -22 10 -2 0 -26
-33 -54 -73z"/>
<path d="M3155 7493 l-868 -1578 84 -79 c148 -140 384 -318 520 -395 l56 -31
1080 2 1079 3 115 77 c142 96 298 220 415 329 88 83 105 109 86 132 -15 19
-1652 2998 -1652 3007 0 4 7 11 16 14 26 10 2188 7 2204 -4 12 -8 4 -145 -68
-1052 -46 -574 -88 -1092 -93 -1153 -5 -60 -36 -452 -69 -870 -66 -833 -73
-880 -145 -1031 -45 -93 -135 -187 -220 -229 l-60 -30 -930 -5 c-883 -5 -932
-6 -965 -24 -161 -85 -183 -286 -42 -393 24 -18 60 -37 81 -43 26 -7 883 -9
2668 -8 l2629 3 49 26 c167 86 171 310 7 406 l-47 28 -955 5 -955 5 -60 30
c-181 90 -289 304 -315 623 -5 70 -34 440 -65 822 -30 382 -59 745 -64 805 -5
61 -45 552 -88 1093 -68 859 -76 984 -63 992 19 13 2180 13 2199 1 15 -10 52
59 -799 -1486 -221 -401 -506 -919 -633 -1149 l-231 -420 65 -58 c279 -255
498 -409 764 -538 465 -225 961 -270 1457 -131 372 105 769 338 1091 641 l88
82 -39 72 c-21 39 -357 649 -747 1356 -389 707 -762 1384 -829 1505 l-121 220
-2381 3 -2382 2 -867 -1577z m5916 867 c144 -261 491 -891 771 -1399 280 -508
507 -930 504 -937 -8 -20 -3098 -21 -3114 -1 -7 9 203 398 762 1412 424 770
775 1406 780 1413 7 12 11 12 22 0 7 -7 131 -227 275 -488z m-4607 -307 c242
-439 590 -1071 774 -1405 198 -360 332 -614 328 -623 -5 -13 -182 -15 -1553
-13 -1545 3 -1548 3 -1547 23 0 28 1534 2815 1548 2815 6 0 209 -359 450 -797z"/>
<path d="M12577 7478 c-9 -239 -34 -388 -91 -539 -13 -35 -82 -212 -154 -394
-177 -451 -227 -601 -252 -760 -57 -359 -98 -501 -87 -296 13 215 -27 506 -99
720 -52 158 -134 317 -327 639 -150 250 -206 357 -241 455 -4 12 -14 17 -28
15 -22 -3 -23 -6 -20 -98 7 -210 61 -582 128 -885 46 -208 51 -224 151 -530
90 -277 149 -491 183 -670 25 -130 36 -336 22 -420 -10 -60 -5 -74 24 -75 6 0
63 78 127 173 64 94 167 236 229 313 335 416 498 775 585 1284 26 152 25 617
0 780 -23 145 -52 283 -78 383 -18 67 -24 77 -44 77 -22 0 -22 -2 -28 -172z"/>
<path d="M96 7383 c-55 -236 -79 -433 -79 -678 -2 -409 80 -774 253 -1130 105
-217 200 -359 401 -600 95 -115 266 -343 340 -454 13 -20 18 -22 36 -13 19 11
20 16 11 54 -6 24 -11 106 -10 183 1 229 53 487 187 924 36 118 78 268 95 335
83 342 156 883 148 1101 -3 79 -5 90 -21 90 -14 0 -26 -21 -51 -86 -18 -48
-103 -211 -190 -363 -263 -462 -324 -605 -375 -872 -40 -203 -51 -474 -25
-603 10 -50 -13 -37 -29 17 -8 26 -31 135 -51 242 -54 286 -91 392 -360 1029
-64 150 -125 303 -136 340 -32 105 -59 286 -66 445 -7 143 -8 146 -30 146 -20
0 -25 -10 -48 -107z"/>
<path d="M11302 5728 c-74 -254 -124 -548 -156 -918 -15 -164 -17 -200 -36
-570 -18 -341 -47 -593 -85 -741 -8 -30 -46 -136 -85 -233 -57 -144 -68 -181
-58 -193 6 -8 19 -13 27 -10 22 5 336 212 524 344 716 502 1103 952 1271 1478
34 107 52 193 76 360 23 160 25 250 8 341 -10 56 -14 64 -34 64 -18 0 -27 -12
-49 -72 -69 -183 -222 -458 -333 -597 -20 -25 -102 -114 -182 -196 -199 -206
-342 -394 -628 -820 -173 -257 -201 -295 -218 -295 -20 0 -18 5 17 56 121 176
183 437 182 774 0 242 -7 303 -94 770 -38 206 -72 410 -75 453 -6 71 -9 77
-29 77 -19 0 -25 -11 -43 -72z"/>
<path d="M1434 5672 c-6 -4 -14 -47 -17 -97 -3 -49 -30 -243 -61 -430 -68
-426 -77 -515 -77 -742 0 -358 71 -640 203 -803 28 -35 36 -60 19 -60 -14 0
-79 82 -196 250 -302 431 -452 619 -671 837 -179 180 -272 293 -369 451 -57
95 -142 262 -183 360 -18 45 -25 53 -44 50 -16 -2 -25 -12 -29 -33 -13 -60 -9
-184 11 -330 36 -258 89 -436 192 -638 255 -501 693 -904 1560 -1436 123 -76
173 -101 188 -96 11 3 20 12 20 20 0 7 -34 92 -75 189 -41 97 -81 202 -89 234
-42 166 -74 418 -106 832 -41 544 -79 827 -156 1150 -42 178 -82 300 -97 300
-7 0 -17 -4 -23 -8z"/>
<path d="M10815 4377 c-83 -87 -166 -214 -261 -402 -73 -145 -98 -212 -264
-710 -101 -302 -207 -606 -237 -675 -104 -240 -238 -475 -332 -582 -44 -49
-47 -58 -30 -75 8 -8 34 -5 98 13 215 61 439 116 591 144 91 18 204 42 251 55
585 163 1084 525 1411 1025 116 176 308 594 308 669 0 24 -30 36 -45 19 -7 -7
-66 -76 -132 -153 -141 -164 -302 -322 -393 -387 -36 -25 -105 -67 -155 -94
-376 -200 -953 -560 -1239 -773 -151 -112 -158 -109 -43 19 81 89 188 252 248
376 96 198 174 488 194 714 20 237 91 670 130 804 11 36 12 53 4 63 -21 24
-43 13 -104 -50z"/>
<path d="M1909 4314 c-10 -12 -10 -24 -1 -57 49 -170 129 -586 147 -767 45
-443 211 -839 470 -1119 48 -51 84 -95 81 -99 -4 -3 -25 9 -49 26 -261 194
-778 506 -1236 746 -344 180 -396 224 -791 669 -4 5 -17 4 -28 -2 l-21 -11 24
-71 c14 -39 48 -124 76 -188 242 -544 640 -961 1164 -1217 256 -124 437 -182
730 -229 174 -29 404 -78 583 -126 160 -43 180 -28 91 69 -94 103 -202 280
-318 524 -45 93 -136 330 -260 678 -208 579 -271 726 -402 925 -67 101 -213
265 -236 265 -6 0 -16 -7 -24 -16z"/>
<path d="M9965 3068 c-101 -53 -302 -248 -565 -548 -259 -295 -525 -556 -660
-646 -66 -45 -275 -158 -371 -203 -78 -36 -208 -81 -271 -95 -21 -5 -28 -12
-28 -30 0 -22 7 -26 53 -35 430 -83 865 -172 1037 -212 245 -57 355 -68 565
-58 413 21 823 169 1153 416 160 120 361 335 461 491 31 48 32 55 18 69 -14
14 -21 11 -74 -29 -215 -166 -474 -282 -759 -341 -167 -35 -274 -46 -544 -57
-252 -10 -425 -30 -750 -86 -113 -20 -220 -38 -237 -41 -56 -9 -37 13 35 42
230 95 322 153 438 278 143 154 315 459 464 822 34 83 75 173 90 201 20 37 25
55 18 67 -12 22 -24 21 -73 -5z"/>
<path d="M2817 2994 c-12 -13 -8 -35 13 -64 11 -16 57 -111 101 -212 246 -558
450 -845 699 -981 36 -20 114 -54 174 -76 186 -68 168 -75 -94 -36 -336 50
-521 67 -825 75 -481 14 -712 59 -1001 195 -109 51 -290 161 -314 191 -16 18
-44 18 -59 0 -17 -20 113 -191 249 -327 351 -352 814 -558 1346 -599 209 -16
351 -1 605 64 233 60 586 142 884 206 237 51 225 47 225 74 0 20 -8 25 -57 36
-32 7 -96 26 -143 42 -95 34 -420 193 -490 241 -142 97 -365 303 -592 547
-339 365 -503 523 -610 587 -57 34 -99 48 -111 37z"/>
<path d="M7015 1539 c-121 -13 -359 -62 -474 -99 l-95 -29 -105 29 c-393 108
-803 118 -1153 29 -43 -11 -275 -102 -515 -203 -603 -253 -642 -269 -775 -315
-150 -51 -239 -68 -437 -82 -313 -21 -592 24 -780 128 -62 33 -66 34 -79 16
-12 -16 -9 -22 30 -57 128 -115 332 -252 491 -330 345 -170 723 -221 1098
-150 295 56 637 245 1017 561 155 130 192 155 307 209 139 66 224 86 395 91
146 4 231 -4 237 -22 2 -6 -41 -32 -94 -59 -272 -134 -562 -330 -838 -564
-126 -107 -435 -417 -435 -436 0 -16 237 -239 249 -234 4 2 56 59 116 128 226
259 635 651 870 834 150 117 368 256 401 256 48 0 343 -186 528 -334 231 -184
647 -578 834 -790 l61 -70 121 119 c66 65 120 124 120 130 0 6 -66 77 -147
156 -349 342 -743 623 -1131 806 -70 32 -112 58 -110 65 7 20 84 30 233 31
119 0 155 -4 236 -26 173 -45 277 -103 469 -256 350 -279 683 -461 965 -525
190 -44 488 -47 685 -6 210 43 426 130 614 249 113 71 281 200 344 264 38 39
41 45 27 57 -14 11 -27 7 -93 -27 -209 -111 -511 -159 -837 -134 -240 19 -333
47 -915 274 -729 285 -691 272 -885 303 -113 18 -430 26 -550 13z"/>
</g>
</svg>
