<?xml version="1.0" standalone="no"?>
<!DOCTYPE svg PUBLIC "-//W3C//DTD SVG 20010904//EN"
 "http://www.w3.org/TR/2001/REC-SVG-20010904/DTD/svg10.dtd">
<svg version="1.0" xmlns="http://www.w3.org/2000/svg"
 width="131.000000pt" height="113.000000pt" viewBox="0 0 131.000000 113.000000"
 preserveAspectRatio="xMidYMid meet">

<g transform="translate(0.000000,113.000000) scale(0.100000,-0.100000)"
fill="#000000" stroke="none">
<path d="M602 977 c-13 -13 -22 -36 -22 -53 0 -29 31 -74 50 -74 6 0 10 -14
10 -31 l0 -30 -127 5 c-173 7 -170 7 -240 0 -65 -6 -88 -20 -77 -48 5 -12 19
-16 59 -16 82 0 85 -11 27 -127 -27 -54 -57 -122 -67 -152 -44 -135 28 -240
160 -229 60 5 95 27 124 79 38 66 22 138 -68 317 -55 110 -54 112 95 112 112
0 114 0 114 -23 0 -13 -4 -27 -9 -32 -5 -6 -14 -77 -21 -160 -6 -82 -15 -154
-21 -159 -5 -6 -9 -25 -9 -44 0 -22 -13 -52 -40 -93 -23 -33 -38 -64 -35 -69
8 -13 302 -13 310 0 3 5 -12 36 -35 69 -27 41 -40 71 -40 93 0 19 -4 38 -9 44
-5 5 -15 77 -21 159 -6 83 -16 154 -21 160 -5 5 -9 19 -9 32 0 23 1 23 119 23
98 0 120 -3 125 -15 3 -9 -12 -51 -33 -93 -59 -118 -91 -206 -91 -250 0 -77
77 -152 157 -152 93 0 153 55 161 144 4 57 -30 157 -94 275 -43 77 -36 91 41
91 40 0 54 4 59 16 11 28 -13 44 -65 44 -27 0 -58 5 -69 12 -15 10 -26 10 -53
0 -19 -7 -83 -12 -145 -12 l-112 0 0 30 c0 17 5 30 10 30 22 0 50 41 50 73 0
69 -91 105 -138 54z m-181 -427 c66 -140 70 -130 -61 -130 l-112 0 6 26 c4 14
28 71 53 126 54 116 50 117 114 -22z m649 -112 c0 -16 -12 -18 -110 -18 -81 0
-110 3 -110 13 0 6 25 64 56 127 l57 115 53 -110 c29 -60 53 -118 54 -127z
m-389 -188 c25 -14 25 -56 -1 -70 -45 -24 -86 44 -42 69 21 13 20 13 43 1z"/>
</g>
</svg>
