<?xml version="1.0" encoding="UTF-8" standalone="no"?>
<svg
   xmlns:dc="http://purl.org/dc/elements/1.1/"
   xmlns:cc="http://creativecommons.org/ns#"
   xmlns:rdf="http://www.w3.org/1999/02/22-rdf-syntax-ns#"
   xmlns:svg="http://www.w3.org/2000/svg"
   xmlns="http://www.w3.org/2000/svg"
   xmlns:xlink="http://www.w3.org/1999/xlink"
   xmlns:sodipodi="http://sodipodi.sourceforge.net/DTD/sodipodi-0.dtd"
   xmlns:inkscape="http://www.inkscape.org/namespaces/inkscape"
   inkscape:version="1.0 (4035a4fb49, 2020-05-01)"
   sodipodi:docname="logo3.svg"
   id="svg26"
   preserveAspectRatio="xMidYMid meet"
   viewBox="0 0 233.63726 27.190503"
   height="27pt"
   width="232pt"
   version="1.0">
  <metadata
     id="metadata32">
    <rdf:RDF>
      <cc:Work
         rdf:about="">
        <dc:format>image/svg+xml</dc:format>
        <dc:type
           rdf:resource="http://purl.org/dc/dcmitype/StillImage" />
        <dc:title></dc:title>
      </cc:Work>
    </rdf:RDF>
  </metadata>
  <defs
     id="defs30">
    <linearGradient
       inkscape:collect="always"
       id="linearGradient877">
      <stop
         style="stop-color:#c41c00;stop-opacity:1;"
         offset="0"
         id="stop873" />
      <stop
         style="stop-color:#c41c00;stop-opacity:0;"
         offset="1"
         id="stop875" />
    </linearGradient>
    <linearGradient
       inkscape:collect="always"
       xlink:href="#linearGradient877"
       id="linearGradient879"
       x1="46.642628"
       y1="12.520043"
       x2="143.69579"
       y2="12.520043"
       gradientUnits="userSpaceOnUse" />
  </defs>
  <sodipodi:namedview
     scale-x="28.54646"
     inkscape:document-units="cm"
     inkscape:current-layer="svg26"
     inkscape:window-maximized="0"
     inkscape:window-y="0"
     inkscape:window-x="182"
     inkscape:cy="84.521247"
     inkscape:cx="151.14652"
     inkscape:zoom="2.8207965"
     showgrid="false"
     id="namedview28"
     inkscape:window-height="1040"
     inkscape:window-width="1260"
     inkscape:pageshadow="2"
     inkscape:pageopacity="0"
     guidetolerance="10"
     gridtolerance="10"
     objecttolerance="10"
     borderopacity="1"
     bordercolor="#666666"
     pagecolor="#ffffff"
     inkscape:document-rotation="0" />
  <text
     transform="scale(0.92138988,1.0853169)"
     id="text36"
     y="24.236841"
     x="46.069843"
     style="font-style:normal;font-variant:normal;font-weight:normal;font-stretch:normal;font-size:34.5018px;line-height:1.25;font-family:'Mongolian Baiti';-inkscape-font-specification:'Mongolian Baiti, Normal';font-variant-ligatures:normal;font-variant-caps:normal;font-variant-numeric:normal;font-variant-east-asian:normal;fill:#ffffff;fill-opacity:1;stroke:none;stroke-width:0.86254;"
     xml:space="preserve"><tspan
       style="font-style:normal;font-variant:normal;font-weight:normal;font-stretch:normal;font-size:34.5018px;font-family:'Mongolian Baiti';-inkscape-font-specification:'Mongolian Baiti, Normal';font-variant-ligatures:normal;font-variant-caps:normal;font-variant-numeric:normal;font-variant-east-asian:normal;fill:#ffffff;fill-opacity:1;stroke-width:0.86254;"
       y="24.236841"
       x="46.069843"
       id="tspan34"
       sodipodi:role="line">Pinto Bracesco</tspan></text>
  <text
     id="text40"
     y="65.672935"
     x="36.027058"
     style="font-style:normal;font-weight:normal;font-size:30px;line-height:1.25;font-family:sans-serif;fill:#000000;fill-opacity:1;stroke:none;stroke-width:0.75"
     xml:space="preserve"><tspan
       style="stroke-width:0.75"
       y="65.672935"
       x="36.027058"
       id="tspan38"
       sodipodi:role="line" /></text>
  <path
     id="path50"
     d="m -49.954639,114.03582 c -2.54714,-0.13602 -3.313341,-0.2718 -3.313341,-0.5872 0,-0.33299 0.788769,-1.75763 1.632235,-2.94807 2.657449,-3.75062 3.238325,-4.94327 3.49111,-7.16794 0.09687,-0.8525 0.348298,-1.93924 0.558738,-2.41497 0.476132,-1.076373 0.803011,-3.243632 1.419492,-9.411437 0.661678,-6.619994 1.12088,-9.648291 1.607754,-10.602641 0.511274,-1.002182 0.573068,-2.537515 0.120346,-2.990147 -0.293085,-0.293028 -0.97307,-0.323244 -7.274496,-0.323244 -7.494254,0 -8.297981,0.08596 -8.862729,0.947875 -0.478246,0.729897 -0.179148,1.7583 1.369057,4.707279 5.625274,10.714871 7.030836,14.538904 6.521194,17.741855 -0.253551,1.59352 -1.308226,3.65282 -2.604295,5.08502 -1.819309,2.0104 -4.583075,3.03217 -8.219477,3.03876 -5.211907,0.009 -8.83981,-2.46389 -10.120451,-6.89963 -0.47879,-1.65838 -0.304602,-4.588516 0.400025,-6.729118 0.291363,-0.885135 2.048679,-4.633944 3.905148,-8.330685 3.631781,-7.23188 3.955741,-8.124599 3.21658,-8.863761 -0.572988,-0.572987 -1.601213,-0.790021 -3.748427,-0.791206 -2.229674,-0.0012 -3.786073,-0.254266 -4.272689,-0.694648 -0.199411,-0.180464 -0.344497,-0.572703 -0.344497,-0.931347 0,-1.327709 1.468132,-1.855202 6.404726,-2.301189 3.586481,-0.324012 4.525307,-0.311734 20.842311,0.272574 l 3.296317,0.11804 -0.127384,-1.657195 c -0.142517,-1.854116 -0.339534,-2.380641 -0.890795,-2.380641 -0.59627,0 -2.008736,-1.447656 -2.634723,-2.700366 -0.690157,-1.381129 -0.718561,-2.191245 -0.12106,-3.452981 0.888067,-1.875322 2.55309,-2.92273 4.660014,-2.931452 3.038233,-0.01258 5.544774,2.093974 5.544774,4.659947 0,1.730598 -1.367327,3.840125 -2.799435,4.318997 -0.993551,0.332228 -1.224492,0.82868 -1.227878,2.639576 l -0.0028,1.492385 7.14735,-0.106062 c 7.095231,-0.105289 8.727311,-0.226978 10.958918,-0.817104 1.321063,-0.349342 2.151644,-0.283619 3.732979,0.295387 0.810704,0.29684 1.829649,0.448015 3.80504,0.564535 3.01738,0.177982 4.28653,0.561753 4.674628,1.413534 0.290349,0.637247 -0.06628,1.500475 -0.748312,1.811259 -0.279579,0.1274 -1.897686,0.29714 -3.599753,0.377615 -3.687476,0.17435 -4.065314,0.333361 -4.159364,1.750446 -0.06228,0.938412 0.13796,1.371405 2.871372,6.208984 3.140931,5.558808 5.239295,11.273164 5.229079,14.240052 -0.0079,2.279644 -1.083131,4.833304 -2.739885,6.506884 -1.942455,1.96219 -4.594593,2.96729 -7.860008,2.97879 -3.123869,0.011 -5.746331,-1.08442 -8.069162,-3.37051 -2.04629,-2.01393 -3.085869,-4.48216 -2.823494,-6.703698 0.292483,-2.476458 2.175186,-7.109546 5.508697,-13.556183 2.032867,-3.931337 2.92262,-6.01064 2.92262,-6.829998 0,-0.370846 -0.159938,-0.549714 -0.710002,-0.794039 -0.605512,-0.268955 -1.655593,-0.325823 -7.135293,-0.386415 -6.782787,-0.075 -8.260944,0.0037 -8.721523,0.464264 -0.426327,0.426326 -0.344326,1.70188 0.180763,2.811824 0.534129,1.129062 1.054581,4.398932 1.521999,9.562376 0.577434,6.378753 1.023146,9.377864 1.603858,10.792029 0.192425,0.4686 0.411261,1.4484 0.4863,2.17733 0.202986,1.97185 0.664716,2.99007 2.813153,6.20365 2.142357,3.20448 2.540804,4.01566 2.062611,4.19916 -1.045317,0.40113 -11.921981,0.58479 -17.377924,0.29345 z m 8.747495,-2.26324 c 1.722655,-1.05036 1.543602,-3.54537 -0.322142,-4.48884 -1.046454,-0.52916 -1.517336,-0.54497 -2.421549,-0.0813 -1.545594,0.79263 -2.097137,2.1198 -1.422373,3.42266 0.742396,1.43345 2.777647,1.99401 4.166064,1.14744 z M -56.624115,96.630817 c 1.162042,-0.590426 0.947094,-1.407238 -1.782317,-6.772862 -2.725551,-5.358036 -3.293599,-6.379738 -3.984556,-7.166694 -1.174385,-1.337551 -1.842047,-0.754537 -4.01755,3.508197 -2.541697,4.980262 -4.142492,8.605565 -4.543388,10.289355 l -0.126966,0.533266 6.964785,-0.06221 c 5.521771,-0.04932 7.073601,-0.117496 7.489992,-0.329059 z m 41.156588,-0.0033 c 0.328001,-0.122355 0.637918,-0.38136 0.688705,-0.575567 0.140118,-0.535817 -0.917525,-2.941726 -3.519152,-8.005312 -3.127262,-6.086634 -3.750572,-7.198947 -3.930657,-7.014356 -0.490031,0.502286 -6.348976,11.67421 -7.269426,13.861451 -0.658071,1.563755 -0.53819,1.697421 1.716044,1.913365 2.409853,0.230855 11.572401,0.09724 12.314486,-0.179581 z"
     style="fill:#ffffff;stroke-width:0.189334" />
  <path
     transform="scale(0.75529189)"
     id="path52"
     d=""
     style="fill:#ffffff;stroke-width:0.250676" />
  <path
     style="fill:#ffffff;fill-opacity:1;stroke-width:0.123551"
     d="m 10.662851,26.855745 c -0.26893,-0.03084 -0.44252,-0.118954 -0.44252,-0.224628 0,-0.09563 0.369997,-0.789286 0.822212,-1.54144 1.121467,-1.86529 1.3132,-2.314492 1.432516,-3.356164 0.05659,-0.494069 0.156411,-0.968993 0.221817,-1.055385 0.180728,-0.238715 0.328724,-1.25486 0.590171,-4.052121 0.326416,-3.492394 0.572591,-5.301362 0.781789,-5.744832 0.099,-0.209861 0.160782,-0.611396 0.14062,-0.9139038 -0.03526,-0.529064 -0.04631,-0.541657 -0.566983,-0.646272 -0.292064,-0.05869 -1.752372,-0.0865 -3.245134,-0.0618 -3.1501711,0.05211 -3.3989071,0.116987 -3.4584841,0.9022178 -0.0401,0.528438 -0.062,0.47387 1.654131,4.120141 1.8809781,3.996521 2.2521801,5.823623 1.5127141,7.445807 -0.7655341,1.679371 -1.8544451,2.525448 -3.5506531,2.758836 -2.291405,0.315285 -4.22125,-0.616689 -5.034057,-2.431083 -0.2923,-0.652491 -0.328028,-0.873134 -0.328028,-2.025832 0,-1.720267 0.138495,-2.150754 1.97006,-6.123546 2.056617,-4.4609528 2.050992,-4.5234748 -0.419954,-4.6672608 -1.550592,-0.09023 -1.84511802,-0.20483 -1.84511802,-0.717929 0,-1.039751 2.31418902,-1.354921 8.23907902,-1.122086 2.1210291,0.08335 4.1376291,0.15068 4.4813341,0.149618 l 0.624916,-0.002 -0.03489,-0.862129 c -0.03423,-0.845762 -0.04323,-0.867288 -0.473316,-1.131919 -0.794738,-0.489001 -1.364515,-1.632775 -1.223591,-2.456243 0.104238,-0.609093 0.800589,-1.439332 1.427269,-1.70169 1.656235,-0.69338196 3.613605,0.941413 3.125403,2.610335 -0.207218,0.708379 -0.651576,1.311663 -1.158354,1.572651 -0.431937,0.222444 -0.434439,0.228371 -0.469466,1.111811 l -0.03522,0.888175 3.398353,-0.06409 c 2.698976,-0.0509 3.598092,-0.112837 4.368911,-0.300959 0.939785,-0.229359 0.98954,-0.229385 1.569365,-8.2e-4 0.329345,0.129826 1.167048,0.282836 1.861559,0.340021 0.694513,0.05718 1.368955,0.146476 1.49876,0.198423 0.613498,0.245512 0.849981,0.875491 0.461364,1.229048 -0.118226,0.107558 -0.725523,0.205124 -1.641293,0.263684 -1.842962,0.117848 -1.992696,0.196934 -1.921021,1.0146338 0.04014,0.458015 0.25384,0.993387 0.833979,2.089376 0.986776,1.864206 1.732585,3.59178 2.22775,5.160301 0.331303,1.049463 0.388327,1.408357 0.390506,2.457819 0.0021,0.990431 -0.04692,1.346284 -0.252354,1.833749 -1.04091,2.469858 -4.095104,3.521089 -6.493209,2.234915 -1.331819,-0.714292 -2.417596,-2.206974 -2.585037,-3.553801 -0.145846,-1.173124 0.581111,-3.4173 2.237601,-6.907658 0.542988,-1.144118 1.108735,-2.447462 1.257218,-2.89632 0.24997,-0.7556528 0.255664,-0.8317848 0.07687,-1.0277828 -0.106205,-0.116424 -0.499451,-0.253615 -0.873879,-0.30487 -0.881574,-0.120679 -5.259651,-0.127391 -5.872991,-0.009 -0.457695,0.08835 -0.473139,0.108171 -0.508928,0.653291 -0.02051,0.3123858 0.04077,0.7427878 0.137916,0.9686488 0.24872,0.578279 0.391969,1.580567 0.668201,4.675309 0.290579,3.255473 0.416484,4.160602 0.715328,5.142533 0.124594,0.409382 0.226534,0.943011 0.226534,1.185847 0,0.636302 0.345208,1.429957 1.281248,2.945653 1.024208,1.658466 1.057742,1.809457 0.429821,1.935338 -0.478061,0.09584 -7.416007,0.108737 -8.230838,0.01531 z m 4.859258,-1.000532 c 0.39266,-0.22259 0.48046,-0.427403 0.48046,-1.120795 0,-0.369563 -0.07954,-0.59993 -0.284849,-0.824994 -0.549913,-0.602821 -1.269863,-0.578762 -1.854358,0.06197 -0.478478,0.524514 -0.457932,1.062938 0.06232,1.633249 0.452541,0.496084 1.009195,0.583453 1.596426,0.250567 z m -6.7440911,-7.38558 c 0.150325,-0.115423 0.262265,-0.337382 0.262265,-0.52003 0,-0.40485 -2.360804,-5.53939 -2.822327,-6.138313 -0.334418,-0.433979 -0.35685,-0.442546 -0.667798,-0.255024 -0.205064,0.123666 -0.52845,0.616271 -0.891679,1.358268 -0.734804,1.501048 -2.050509,4.645933 -2.205351,5.271377 l -0.120095,0.485096 h 3.091358 c 2.606935,0 3.132458,-0.03155 3.353627,-0.201374 z m 18.0803751,0.08579 c 0.419597,-0.127986 0.418859,-0.390393 -0.0041,-1.461448 -0.447452,-1.133077 -2.849959,-6.184944 -2.940655,-6.183456 -0.163838,0.0027 -3.450361,7.078568 -3.405741,7.332557 0.02149,0.122403 0.171574,0.262959 0.33349,0.312347 0.383538,0.116989 5.633469,0.116989 6.017006,0 z"
     id="path48" />
</svg>
